<svg id="staiy__washingauto" xmlns="http://www.w3.org/2000/svg" width="65.862" height="58.56" viewBox="0 0 65.862 58.56">
  <path id="Pfad_603" data-name="Pfad 603" d="M69.044,18.94,60.771,55.522H18.47L10.2,18.94l-3.507.791,8.921,39.388h48.02l8.921-39.388Z" transform="translate(-6.69 -0.559)" fill="#323536"/>
  <path id="Pfad_604" data-name="Pfad 604" d="M23.783,31.363a12.649,12.649,0,0,0,21.726,0,12.677,12.677,0,0,0,10.863,6.169v-3.6a9.073,9.073,0,0,1-9.065-9.065h-3.6a9.065,9.065,0,1,1-18.129,0h-3.6a9.073,9.073,0,0,1-9.065,9.065v3.6A12.677,12.677,0,0,0,23.783,31.363Z" transform="translate(-1.715 4.176)" fill="#323536"/>
  <path id="Pfad_605" data-name="Pfad 605" d="M25.4,23.576h8.831L37.361,30.5l3.273-1.475L31.444,8.72H28.17L18.98,29.025,22.253,30.5l3.129-6.924Zm4.406-9.766,2.788,6.169H27.019l2.788-6.169Z" transform="translate(3.124 -8.72)" fill="#323536"/>
</svg>
