<svg id="staiy__washing30" xmlns="http://www.w3.org/2000/svg" width="65.862" height="57.409" viewBox="0 0 65.862 57.409">
  <g id="Gruppe_268" data-name="Gruppe 268" transform="translate(0 17.212)">
    <path id="Pfad_588" data-name="Pfad 588" d="M63.631,58.807H15.611L6.69,19.4,10.2,18.61l8.273,36.6h42.3l8.273-36.6,3.507.791Z" transform="translate(-6.69 -18.61)" fill="#323536"/>
    <path id="Pfad_589" data-name="Pfad 589" d="M56.382,37.2a12.677,12.677,0,0,1-10.863-6.169,12.649,12.649,0,0,1-21.726,0A12.677,12.677,0,0,1,12.93,37.2V33.6a9.073,9.073,0,0,0,9.065-9.065h3.6a9.065,9.065,0,1,0,18.129,0h3.6A9.073,9.073,0,0,0,56.382,33.6v3.6Z" transform="translate(-1.707 -13.875)" fill="#323536"/>
  </g>
  <g id="Gruppe_269" data-name="Gruppe 269" transform="translate(18.615 0)">
    <path id="Pfad_590" data-name="Pfad 590" d="M30.565,22.29c0,3.327-2.7,5.647-6.978,5.647a11.476,11.476,0,0,1-6.547-2l1.385-2.752a7.374,7.374,0,0,0,4.91,1.942c2.5,0,3.939-1.079,3.939-2.806s-1.457-2.662-3.957-2.662h-2.7V17.722l4.91-4.658h-7.59V10.15H29.684v2.086L24.234,17.4l1.007.108c3.183.324,5.324,2.014,5.324,4.784Z" transform="translate(-17.04 -8.154)" fill="#323536"/>
    <path id="Pfad_591" data-name="Pfad 591" d="M38.745,19c0,5.737-2.392,8.939-6.708,8.939S25.31,24.738,25.31,19,27.7,10.08,32.036,10.08,38.745,13.263,38.745,19ZM28.637,19c0,4.352,1.115,6.349,3.4,6.349s3.381-2,3.381-6.349S34.3,12.67,32.036,12.67s-3.4,1.96-3.4,6.331Z" transform="translate(-10.436 -8.21)" fill="#323536"/>
    <path id="Pfad_592" data-name="Pfad 592" d="M41.961,13.123c0,2.446-1.781,4.083-4.46,4.083s-4.46-1.637-4.46-4.083S34.821,9.04,37.5,9.04s4.46,1.637,4.46,4.083Zm-6.6.018a2.141,2.141,0,1,0,4.28,0,2.141,2.141,0,1,0-4.28,0Z" transform="translate(-4.264 -9.04)" fill="#323536"/>
  </g>
</svg>
