<svg id="staiy__washing60" xmlns="http://www.w3.org/2000/svg" width="65.862" height="57.409" viewBox="0 0 65.862 57.409">
  <g id="Gruppe_272" data-name="Gruppe 272" transform="translate(0 17.212)">
    <path id="Pfad_598" data-name="Pfad 598" d="M63.631,58.807H15.611L6.69,19.4,10.2,18.61l8.273,36.6h42.3l8.273-36.6,3.507.791Z" transform="translate(-6.69 -18.61)" fill="#323536"/>
    <path id="Pfad_599" data-name="Pfad 599" d="M56.382,37.2a12.677,12.677,0,0,1-10.863-6.169,12.649,12.649,0,0,1-21.726,0A12.677,12.677,0,0,1,12.93,37.2V33.6a9.073,9.073,0,0,0,9.065-9.065h3.6a9.065,9.065,0,1,0,18.129,0h3.6A9.073,9.073,0,0,0,56.382,33.6v3.6Z" transform="translate(-1.707 -13.875)" fill="#323536"/>
  </g>
  <g id="Gruppe_273" data-name="Gruppe 273" transform="translate(17.374 0)">
    <path id="Pfad_600" data-name="Pfad 600" d="M24.281,12.812c-3.255,0-4.82,2.32-4.694,5.9a5.06,5.06,0,0,1,4.64-2.338,5.27,5.27,0,0,1,5.665,5.665c0,3.687-2.5,5.971-6.295,5.971-4.514,0-7.248-3.219-7.248-8.633s3-9.316,7.716-9.316a11.257,11.257,0,0,1,5.36,1.385l-1.313,2.5a7.225,7.225,0,0,0-3.831-1.115Zm-4.209,9.3a3.062,3.062,0,0,0,3.381,3.04A3.021,3.021,0,0,0,26.8,22a2.9,2.9,0,0,0-3.219-3.022c-2.248,0-3.525,1.4-3.507,3.129Z" transform="translate(-16.35 -8.226)" fill="#323536"/>
    <path id="Pfad_601" data-name="Pfad 601" d="M37.665,19c0,5.737-2.392,8.939-6.708,8.939S24.23,24.738,24.23,19s2.392-8.921,6.726-8.921S37.665,13.263,37.665,19ZM27.557,19c0,4.352,1.115,6.349,3.4,6.349s3.381-2,3.381-6.349-1.115-6.331-3.381-6.331-3.4,1.96-3.4,6.331Z" transform="translate(-10.058 -8.21)" fill="#323536"/>
    <path id="Pfad_602" data-name="Pfad 602" d="M40.881,13.123c0,2.446-1.781,4.083-4.46,4.083s-4.46-1.637-4.46-4.083S33.741,9.04,36.42,9.04s4.46,1.637,4.46,4.083Zm-6.6.018a2.141,2.141,0,1,0,4.28,0,2.141,2.141,0,1,0-4.28,0Z" transform="translate(-3.885 -9.04)" fill="#323536"/>
  </g>
</svg>
