<svg id="staiy__washing40" xmlns="http://www.w3.org/2000/svg" width="65.862" height="57.409" viewBox="0 0 65.862 57.409">
  <g id="Gruppe_270" data-name="Gruppe 270" transform="translate(0 17.212)">
    <path id="Pfad_593" data-name="Pfad 593" d="M63.631,58.807H15.611L6.69,19.4,10.2,18.61l8.273,36.6h42.3l8.273-36.6,3.507.791Z" transform="translate(-6.69 -18.61)" fill="#323536"/>
    <path id="Pfad_594" data-name="Pfad 594" d="M56.382,37.2a12.677,12.677,0,0,1-10.863-6.169,12.649,12.649,0,0,1-21.726,0A12.677,12.677,0,0,1,12.93,37.2V33.6a9.073,9.073,0,0,0,9.065-9.065h3.6a9.065,9.065,0,1,0,18.129,0h3.6A9.073,9.073,0,0,0,56.382,33.6v3.6Z" transform="translate(-1.707 -13.875)" fill="#323536"/>
  </g>
  <g id="Gruppe_271" data-name="Gruppe 271" transform="translate(18.039 0)">
    <path id="Pfad_595" data-name="Pfad 595" d="M25.874,10.14,20.263,20.715h4.892V16.651h3.129v4.065h2.554v2.9H28.284V27.8H25.155V23.611H16.72V21.147L22.637,10.14h3.255Z" transform="translate(-16.72 -8.162)" fill="#323536"/>
    <path id="Pfad_596" data-name="Pfad 596" d="M41.421,13.123c0,2.446-1.781,4.083-4.46,4.083s-4.46-1.637-4.46-4.083S34.281,9.04,36.96,9.04s4.46,1.637,4.46,4.083Zm-6.6.018a2.141,2.141,0,1,0,4.28,0,2.141,2.141,0,1,0-4.28,0Z" transform="translate(-4.119 -9.04)" fill="#323536"/>
    <path id="Pfad_597" data-name="Pfad 597" d="M38.455,19c0,5.737-2.392,8.939-6.708,8.939S25.02,24.738,25.02,19s2.392-8.921,6.726-8.921S38.455,13.263,38.455,19ZM28.347,19c0,4.352,1.115,6.349,3.4,6.349s3.381-2,3.381-6.349-1.115-6.331-3.381-6.331-3.4,1.96-3.4,6.331Z" transform="translate(-10.092 -8.21)" fill="#323536"/>
  </g>
</svg>
