<svg xmlns="http://www.w3.org/2000/svg" xmlns:xlink="http://www.w3.org/1999/xlink" width="32" height="31" viewBox="0 0 32 31">
  <defs>
    <clipPath id="clip-path">
      <rect id="Rechteck_14" data-name="Rechteck 14" width="32" height="31" transform="translate(0 -3)" fill="#fff"/>
    </clipPath>
  </defs>
  <g id="lupe" transform="translate(0 3)" clip-path="url(#clip-path)" style="mix-blend-mode: normal;isolation: isolate">
    <path id="staiy__lense" d="M35.687,32.138l-4.595-4.595a2.526,2.526,0,0,0-2.9-.465l-1.233-1.233a10.586,10.586,0,1,0-1.106,1.106l1.233,1.233a2.494,2.494,0,0,0,.465,2.9l4.595,4.595A2.508,2.508,0,1,0,35.7,32.129Zm-7.729-13.16A8.979,8.979,0,1,1,18.98,10a8.99,8.99,0,0,1,8.979,8.979Zm6.892,14.933a.92.92,0,0,1-.279.659.959.959,0,0,1-1.326,0l-4.595-4.595a.935.935,0,0,1-.279-.659.963.963,0,0,1,.27-.659h0a.959.959,0,0,1,1.326,0l4.595,4.595a.935.935,0,0,1,.279.659Z" transform="translate(-6.43 -9.42)" fill="#323536"/>
  </g>
</svg>
