<svg xmlns="http://www.w3.org/2000/svg" width="60.777" height="77.948" viewBox="0 0 60.777 77.948">
  <path id="staiy__washing_eco" d="M41.836,34.488a8.181,8.181,0,1,0,8.181-8.181,8.185,8.185,0,0,0-8.181,8.181Zm8.181-5.815A5.815,5.815,0,1,1,44.2,34.488,5.823,5.823,0,0,1,50.016,28.673ZM40.355,46.768A13.147,13.147,0,1,0,27.208,59.915,13.16,13.16,0,0,0,40.355,46.768ZM27.208,57.549A10.781,10.781,0,1,1,37.989,46.768,10.8,10.8,0,0,1,27.208,57.549ZM36.49,23.382a6.278,6.278,0,0,0,.993.072,7.113,7.113,0,0,0,7.007-6.014c.235-.9,1.806-7.856-4.388-14.357a1.154,1.154,0,0,0-1.445-.2c-7.747,4.533-8.181,11.648-8.2,12.587A7.077,7.077,0,0,0,36.49,23.4Zm-3.684-7.675v-.163A13.116,13.116,0,0,1,39.018,5.432c4.768,5.58,3.233,11.2,3.16,11.449,0,.054-.036.108-.036.163a4.714,4.714,0,0,1-4.154,4.009L39.7,8.845l-2.33-.325-.867,6.158-1.264-1.372-1.734,1.589,2.564,2.817-.433,3.016a4.729,4.729,0,0,1-2.871-5ZM52.129,34.163h2.366a4.723,4.723,0,0,0-2.907-4.37l-.921,2.167A2.385,2.385,0,0,1,52.129,34.163ZM67.768,17.658a6.374,6.374,0,0,1-6.375-6.375,1.174,1.174,0,0,0-2.348,0,6.374,6.374,0,0,1-6.375,6.375,1.174,1.174,0,1,0,0,2.348,6.374,6.374,0,0,1,6.375,6.375,1.174,1.174,0,0,0,2.348,0,6.374,6.374,0,0,1,6.375-6.375,1.174,1.174,0,1,0,0-2.348ZM60.2,22.01a8.655,8.655,0,0,0-3.178-3.178A8.655,8.655,0,0,0,60.2,15.653a8.655,8.655,0,0,0,3.178,3.178A8.655,8.655,0,0,0,60.2,22.01ZM31.163,39.184l-.921,2.167a4,4,0,0,1,2.438,3.684h2.366a6.364,6.364,0,0,0-3.883-5.869ZM43.732,70.768a6.374,6.374,0,0,1-6.375-6.375,1.174,1.174,0,1,0-2.348,0,6.374,6.374,0,0,1-6.375,6.375,1.174,1.174,0,1,0,0,2.348,6.374,6.374,0,0,1,6.375,6.375,1.174,1.174,0,1,0,2.348,0,6.374,6.374,0,0,1,6.375-6.375,1.174,1.174,0,0,0,0-2.348Zm-7.567,4.352a8.655,8.655,0,0,0-3.178-3.178,8.655,8.655,0,0,0,3.178-3.178,8.655,8.655,0,0,0,3.178,3.178A8.655,8.655,0,0,0,36.165,75.121ZM62.73,45.071c-11.377-.56-16.686,6.772-17.3,7.657a8.744,8.744,0,0,0,6.628,14.429c.2,0,.415,0,.614-.018a8.67,8.67,0,0,0,5.941-2.926c.795-.722,7.314-6.989,5.219-18.185a1.172,1.172,0,0,0-1.1-.957ZM57.005,62.479a.778.778,0,0,0-.126.126,6.375,6.375,0,0,1-8.036,1.3l5.382-6.176,4.515-.307-.163-2.348-2.167.144,3.07-3.521-1.788-1.553L52,56.665,51.5,53.613l-2.33.379L50,58.958l-2.962,3.4a6.362,6.362,0,0,1,.2-8.126c.036-.036.072-.09.108-.126.181-.289,4.479-6.682,14.158-6.682h.144C63.055,57.1,57.24,62.281,56.987,62.5ZM10.07,58.561a1.2,1.2,0,0,0-1.21.813,12.628,12.628,0,0,0,1.914,11.991,5.88,5.88,0,0,0,4.822,2.51,5.863,5.863,0,0,0,4.894-9.084,12.552,12.552,0,0,0-10.42-6.23Zm8.343,11.5-5.291-7.819-1.95,1.318,5.291,7.819a3.482,3.482,0,0,1-3.756-1.409.785.785,0,0,0-.108-.126,10.113,10.113,0,0,1-1.734-8.813,10.026,10.026,0,0,1,7.549,4.876.393.393,0,0,0,.09.144,3.533,3.533,0,0,1-.072,4.027ZM12.292,24.43A6.374,6.374,0,0,1,18.666,30.8a1.174,1.174,0,0,0,2.348,0,6.374,6.374,0,0,1,6.375-6.375,1.174,1.174,0,0,0,0-2.348,6.374,6.374,0,0,1-6.375-6.375,1.174,1.174,0,0,0-2.348,0,6.374,6.374,0,0,1-6.375,6.375,1.174,1.174,0,1,0,0,2.348Zm7.567-4.352a8.655,8.655,0,0,0,3.178,3.178,8.655,8.655,0,0,0-3.178,3.178,8.655,8.655,0,0,0-3.178-3.178A8.655,8.655,0,0,0,19.858,20.077Z" transform="translate(-8.165 -2.716)" fill="#323536"/>
</svg>
