<svg xmlns="http://www.w3.org/2000/svg" width="66.339" height="59.386" viewBox="0 0 66.339 59.386">
  <path id="staiy__washing_hand" d="M56.106,48.85,47.238,38.443a.98.98,0,0,0-1.487,1.277l8.868,10.408a.937.937,0,0,1-.087,1.312,1.39,1.39,0,0,1-1.627,0h0l-8.186-9.62A.98.98,0,1,0,43.232,43.1l8.2,9.62,1.4,1.609c.28.4.612,1.119.052,1.627a1.369,1.369,0,0,1-.875.315.82.82,0,0,1-.647-.21l-9.69-11.335h0l-.052-.052a.98.98,0,0,0-1.487,1.277l8.116,9.515a1.34,1.34,0,0,1-.332,1.889,1.21,1.21,0,0,1-1.5-.1l-8.064-9.463-.052-.052h0V47.7a1,1,0,0,0-1.417-.1.959.959,0,0,0-.1,1.382l.07.07,5.44,6.454h0c.525.612-.035,1.329-.262,1.574a1.125,1.125,0,0,1-.822.245.977.977,0,0,1-.682-.28l-2.379-2.921a.982.982,0,1,0-1.522,1.242l2.4,2.939h.017a2.862,2.862,0,0,0,2.047.98h.21a3.111,3.111,0,0,0,2.082-.787l.052-.052a3.736,3.736,0,0,0,.647-.91l.822.98a2.993,2.993,0,0,0,2.082,1h.245a2.951,2.951,0,0,0,1.959-.7,3.9,3.9,0,0,0,.945-1.242,2.9,2.9,0,0,0,1.837.647h.087a3.418,3.418,0,0,0,2.134-.8,2.815,2.815,0,0,0,.98-2.012,3.457,3.457,0,0,0-.507-1.889,3.006,3.006,0,0,0,1.207-.595,2.9,2.9,0,0,0,.3-4.076Zm-32.22,2.974a2.3,2.3,0,0,1-1.732.8,2.267,2.267,0,0,1-1.732-.8A4.2,4.2,0,0,0,17.38,50.53a.98.98,0,0,0,0,1.959,2.267,2.267,0,0,1,1.732.8,4.225,4.225,0,0,0,6.087,0,2.3,2.3,0,0,1,1.732-.8,2.267,2.267,0,0,1,1.732.8,4.225,4.225,0,0,0,6.087,0,2.3,2.3,0,0,1,1.732-.8.98.98,0,0,0,0-1.959,4.2,4.2,0,0,0-3.044,1.294,2.3,2.3,0,0,1-1.732.8,2.267,2.267,0,0,1-1.732-.8,4.225,4.225,0,0,0-6.087,0Zm10.285-21.76.035.035a3.087,3.087,0,0,0,2.519,1.049h.087c1.032-.1,5.055-.175,6.577-.21a4.294,4.294,0,0,1,1.119.245l7.871,3.638h0a.905.905,0,0,1,.49.525.965.965,0,0,1,0,.7.922.922,0,0,1-1.224.472h-.017l-5.51-2.274a1.822,1.822,0,0,0-1.452,0l-1.452.612-.035.017h-.035a14.369,14.369,0,0,0-1.907,1.207c-2.274,1.574-4.828,3.341-9.725,1.5a.991.991,0,1,0-.7,1.854,13,13,0,0,0,4.565.91,11.641,11.641,0,0,0,6.979-2.641,15.88,15.88,0,0,1,1.662-1.049l1.364-.577,5.475,2.256a3.042,3.042,0,0,0,1.154.245,2.914,2.914,0,0,0,2.659-1.732,2.876,2.876,0,0,0,.052-2.221A2.921,2.921,0,0,0,53.2,33.02l-7.924-3.656a1.165,1.165,0,0,0-.122-.052,7.063,7.063,0,0,0-1.749-.367h-.035c-.227,0-5.3.087-6.717.21l-.42-.035h-.052a1.128,1.128,0,0,1-.49-.315L20.65,9.494A.985.985,0,1,0,19.094,10.7l15.06,19.346Zm37.887,5.7a.971.971,0,0,0-1.259.577l-2.344,6.384a2.74,2.74,0,0,1-1.242-.752,4.225,4.225,0,0,0-6.087,0,2.3,2.3,0,0,1-1.732.8,2.267,2.267,0,0,1-1.732-.8,4.2,4.2,0,0,0-3.044-1.294.98.98,0,1,0,0,1.959,2.267,2.267,0,0,1,1.732.8,4.225,4.225,0,0,0,6.087,0,2.3,2.3,0,0,1,1.732-.8,2.267,2.267,0,0,1,1.732.8,4.986,4.986,0,0,0,1.854,1.119L61.074,62.686A5.427,5.427,0,0,1,56,66.22H23.414a5.41,5.41,0,0,1-5.073-3.533L11.1,43.043c.157.122.315.245.49.4a4.225,4.225,0,0,0,6.087,0,2.3,2.3,0,0,1,1.732-.8,2.267,2.267,0,0,1,1.732.8,4.225,4.225,0,0,0,6.087,0,2.3,2.3,0,0,1,1.732-.8,2.267,2.267,0,0,1,1.732.8,4.2,4.2,0,0,0,3.044,1.294.98.98,0,1,0,0-1.959,2.267,2.267,0,0,1-1.732-.8,4.225,4.225,0,0,0-6.087,0,2.3,2.3,0,0,1-1.732.8,2.267,2.267,0,0,1-1.732-.8,4.225,4.225,0,0,0-6.087,0,2.3,2.3,0,0,1-1.732.8,2.267,2.267,0,0,1-1.732-.8,4.368,4.368,0,0,0-2.659-1.259L8.634,36.344a.98.98,0,0,0-1.837.682L16.5,63.369A7.414,7.414,0,0,0,23.432,68.2h32.6a7.414,7.414,0,0,0,6.927-4.828l9.708-26.342a.971.971,0,0,0-.577-1.259Zm-47,1.714v.035a.988.988,0,0,1,.21,1.015.98.98,0,0,0,.595,1.259,1.1,1.1,0,0,0,.332.052.978.978,0,0,0,.927-.647,2.973,2.973,0,0,0-.542-2.956L11.17,17.1a.982.982,0,1,0-1.522,1.242L25.076,37.463ZM32.51,50.215a1.029,1.029,0,0,0,.647-.245.994.994,0,0,0,.1-1.4L30.288,45.16a1.011,1.011,0,0,0-1.4-.1.994.994,0,0,0-.1,1.4l2.974,3.411a.972.972,0,0,0,.752.332Z" transform="translate(-6.548 -8.96)" fill="#323536" stroke="#323536" stroke-width="0.3"/>
</svg>
