<svg xmlns="http://www.w3.org/2000/svg" width="72.977" height="82.63" viewBox="0 0 72.977 82.63">
  <g id="staiy__washing_normal" transform="translate(-6.015 -6.205)">
    <g id="Gruppe_266" data-name="Gruppe 266" transform="translate(23.828 25.548)">
      <path id="Pfad_581" data-name="Pfad 581" d="M56.326,50.554a20.758,20.758,0,1,1-41.516,0c0-11.465,20.768-34.8,20.768-34.8S56.326,39.089,56.326,50.554Z" transform="translate(-14.81 -15.75)" fill="none" stroke="#323536" stroke-linecap="round" stroke-linejoin="round" stroke-width="2.5"/>
      <path id="Pfad_582" data-name="Pfad 582" d="M37.445,36.27a14.415,14.415,0,0,1-8.405,2.673,14.045,14.045,0,0,1-8.1-2.469" transform="translate(-8.434 5.593)" fill="none" stroke="#323536" stroke-linecap="round" stroke-linejoin="round" stroke-width="2.5"/>
    </g>
    <path id="Pfad_583" data-name="Pfad 583" d="M15.117,70.9a3.274,3.274,0,0,1-3.264-3.264.816.816,0,1,0-1.632,0A3.274,3.274,0,0,1,6.956,70.9a.816.816,0,0,0,0,1.632A3.274,3.274,0,0,1,10.22,75.8a.816.816,0,1,0,1.632,0,3.274,3.274,0,0,1,3.264-3.264.816.816,0,0,0,0-1.632Zm-4.08,2.183A4.99,4.99,0,0,0,9.649,71.7a4.99,4.99,0,0,0,1.387-1.387A4.99,4.99,0,0,0,12.424,71.7,4.99,4.99,0,0,0,11.036,73.083ZM26.48,17.245a8.3,8.3,0,1,0,8.3,8.3A8.324,8.324,0,0,0,26.48,17.245Zm0,14.995a6.692,6.692,0,1,1,6.692-6.692A6.7,6.7,0,0,1,26.48,32.239ZM67.445,76.306a6.2,6.2,0,1,0,6.2,6.2A6.212,6.212,0,0,0,67.445,76.306Zm0,10.792a4.59,4.59,0,1,1,4.59-4.59A4.6,4.6,0,0,1,67.445,87.1ZM64.508,13.43a6.286,6.286,0,0,1-6.284-6.284.816.816,0,1,0-1.632,0,6.286,6.286,0,0,1-6.284,6.284.816.816,0,0,0,0,1.632,6.286,6.286,0,0,1,6.284,6.284.816.816,0,1,0,1.632,0,6.286,6.286,0,0,1,6.284-6.284.816.816,0,1,0,0-1.632Zm-7.1,4.427A7.937,7.937,0,0,0,53.8,14.246a7.937,7.937,0,0,0,3.611-3.611,7.937,7.937,0,0,0,3.611,3.611A7.937,7.937,0,0,0,57.408,17.857Z" transform="translate(0 0)" fill="#323536" stroke="#323536" stroke-width="0.25"/>
    <path id="Pfad_584" data-name="Pfad 584" d="M49.817,31.773a6.739,6.739,0,0,1-6.732-6.732,1.061,1.061,0,0,0-2.122,0,6.739,6.739,0,0,1-6.732,6.732,1.061,1.061,0,0,0,0,2.122,6.739,6.739,0,0,1,6.732,6.732,1.061,1.061,0,1,0,2.122,0,6.739,6.739,0,0,1,6.732-6.732,1.061,1.061,0,0,0,0-2.122Zm-7.793,4.651a8.946,8.946,0,0,0-3.591-3.591,8.946,8.946,0,0,0,3.591-3.591,8.946,8.946,0,0,0,3.591,3.591A8.946,8.946,0,0,0,42.024,36.425Z" transform="translate(28.114 18.358)" fill="#323536"/>
    <path id="Pfad_585" data-name="Pfad 585" d="M17.672,13.9l-.632,1.489a2.451,2.451,0,0,1,1.489,2.244h1.612A4.059,4.059,0,0,0,17.672,13.9Z" transform="translate(11.337 7.874)" fill="#323536"/>
  </g>
</svg>
