<svg xmlns="http://www.w3.org/2000/svg" width="67.443" height="65.283" viewBox="0 0 67.443 65.283">
  <g id="staiy_washing_quick" transform="translate(-7.06 -7.979)">
    <g id="Gruppe_267" data-name="Gruppe 267" transform="translate(8.31 9.62)">
      <path id="Pfad_586" data-name="Pfad 586" d="M17.829,16.589A32.843,32.843,0,0,0,10.86,26.907,32.119,32.119,0,0,0,8.31,39.541a32.293,32.293,0,0,0,9.519,22.952,32.844,32.844,0,0,0,10.318,6.969,32.119,32.119,0,0,0,12.634,2.55,32.293,32.293,0,0,0,22.952-9.519A32.843,32.843,0,0,0,70.7,52.175a32.119,32.119,0,0,0,2.55-12.634,32.293,32.293,0,0,0-9.519-22.952A32.843,32.843,0,0,0,53.416,9.62" transform="translate(-8.31 -9.62)" fill="none" stroke="#323536" stroke-linecap="round" stroke-width="2.5"/>
      <path id="Pfad_587" data-name="Pfad 587" d="M18.144,22.194V12.83H8.78" transform="translate(-7.865 -6.581)" fill="none" stroke="#323536" stroke-linecap="round" stroke-linejoin="round" stroke-width="2.5"/>
    </g>
    <line id="Linie_36" data-name="Linie 36" y1="14.503" transform="translate(40.801 20.561)" fill="none" stroke="#323536" stroke-linecap="round" stroke-width="2.5"/>
    <circle id="Ellipse_24" data-name="Ellipse 24" cx="4.497" cy="4.497" r="4.497" transform="translate(36.304 35.064)" fill="none" stroke="#323536" stroke-linecap="round" stroke-width="2.5"/>
    <line id="Linie_37" data-name="Linie 37" x1="2.862" transform="translate(12.904 39.561)" fill="none" stroke="#323536" stroke-linecap="round" stroke-width="2.5"/>
    <line id="Linie_38" data-name="Linie 38" x1="2.472" y2="1.421" transform="translate(16.642 52.078)" fill="none" stroke="#323536" stroke-linecap="round" stroke-width="2.5"/>
    <line id="Linie_39" data-name="Linie 39" x1="1.421" y2="2.472" transform="translate(26.862 61.247)" fill="none" stroke="#323536" stroke-linecap="round" stroke-width="2.5"/>
    <line id="Linie_40" data-name="Linie 40" y2="2.862" transform="translate(40.801 64.595)" fill="none" stroke="#323536" stroke-linecap="round" stroke-width="2.5"/>
    <line id="Linie_41" data-name="Linie 41" x2="1.421" y2="2.472" transform="translate(53.318 61.247)" fill="none" stroke="#323536" stroke-linecap="round" stroke-width="2.5"/>
    <line id="Linie_42" data-name="Linie 42" x2="2.472" y2="1.421" transform="translate(62.487 52.078)" fill="none" stroke="#323536" stroke-linecap="round" stroke-width="2.5"/>
    <line id="Linie_43" data-name="Linie 43" x2="2.862" transform="translate(65.836 39.561)" fill="none" stroke="#323536" stroke-linecap="round" stroke-width="2.5"/>
    <line id="Linie_44" data-name="Linie 44" y1="1.421" x2="2.472" transform="translate(62.487 25.622)" fill="none" stroke="#323536" stroke-linecap="round" stroke-width="2.5"/>
    <line id="Linie_45" data-name="Linie 45" y1="2.472" x2="1.421" transform="translate(53.318 15.402)" fill="none" stroke="#323536" stroke-linecap="round" stroke-width="2.5"/>
    <line id="Linie_46" data-name="Linie 46" x2="10.084" transform="translate(45.298 39.561)" fill="none" stroke="#323536" stroke-linecap="round" stroke-width="2.5"/>
  </g>
</svg>
