<svg xmlns="http://www.w3.org/2000/svg" width="55.545" height="55.576" viewBox="0 0 55.545 55.576">
  <path id="staiy__markers" d="M49.748,16.126a13.919,13.919,0,0,0-13.9,13.9A13.776,13.776,0,0,0,38.4,38.061L48.8,52.7a1.149,1.149,0,0,0,1.873,0L61.062,38.061h0a13.776,13.776,0,0,0,2.553-8.036,13.919,13.919,0,0,0-13.9-13.9ZM59.295,36.58a1.257,1.257,0,0,0-.2.272L49.748,50.025,40.291,36.716a11.573,11.573,0,1,1,18.973-.136ZM21.968,18.438A4.638,4.638,0,1,0,17.33,13.8,4.648,4.648,0,0,0,21.968,18.438Zm0-6.949A2.311,2.311,0,1,1,19.656,13.8,2.311,2.311,0,0,1,21.968,11.489Zm27.8,11.571a6.949,6.949,0,1,0,6.949,6.949A6.95,6.95,0,0,0,49.763,23.06Zm0,11.571A4.638,4.638,0,1,1,54.4,29.994,4.648,4.648,0,0,1,49.763,34.631Zm0,23.158H22.209a2.311,2.311,0,0,1,0-4.622h9.018a4.638,4.638,0,0,0,0-9.275H12.708a2.311,2.311,0,0,1,0-4.622h9.26a1.163,1.163,0,1,0,0-2.326h-9.26a4.638,4.638,0,0,0,0,9.275h18.52a2.311,2.311,0,1,1,0,4.622H22.209a4.638,4.638,0,0,0,0,9.275H49.748a1.163,1.163,0,0,0,0-2.326ZM13.825,18.226l7.115,13.49a1.162,1.162,0,0,0,2.054,0l7.1-13.475h0a.485.485,0,0,1,.045-.076h0l.03-.06a9.26,9.26,0,1,0-16.405,0c.015.045.045.076.06.121Zm8.142-11.36a6.954,6.954,0,0,1,6.239,10.015h-.015a3.2,3.2,0,0,0-.166.317l-6.058,11.5L15.91,17.2a1.18,1.18,0,0,0-.166-.3,7.034,7.034,0,0,1-.71-3.082,6.95,6.95,0,0,1,6.949-6.949Z" transform="translate(-8.07 -4.54)" fill="#323536"/>
</svg>
