<svg xmlns="http://www.w3.org/2000/svg" width="62.558" height="66.215" viewBox="0 0 62.558 66.215">
  <path id="staiy__airdried" d="M67.726,61.341,62.9,56.424v-13.4A1.027,1.027,0,0,0,61.871,42H59.386V38.875a1.027,1.027,0,0,0-1.025-1.025h-.33V33.089c.521-.087,1.042-.174,1.529-.278,6.238-1.268,9.261-2.954,9.261-5.143V23.394c0-5.577-20.45-6.62-24.551-6.776H42.724A1.027,1.027,0,0,0,41.7,17.643a1.016,1.016,0,0,0,1.025,1.025H44.2a89.061,89.061,0,0,1,16.593,1.963c5.821,1.407,5.977,2.763,5.977,2.78,0,.417-1.407,1.876-7.628,3.145a106.551,106.551,0,0,1-20.189,1.7,106.419,106.419,0,0,1-20.189-1.7c-6.238-1.268-7.628-2.728-7.628-3.145s1.407-1.876,7.628-3.145a105.014,105.014,0,0,1,19.182-1.685v2.224a107.871,107.871,0,0,0-19.581,1.72,1.017,1.017,0,0,0,.191,2.015.846.846,0,0,0,.208-.017,106.551,106.551,0,0,1,20.189-1.7,114.683,114.683,0,0,1,17.931,1.286,1.013,1.013,0,0,0,.33-2,115,115,0,0,0-17.236-1.3V6.975A1.027,1.027,0,0,0,38.953,5.95a1.016,1.016,0,0,0-1.025,1.025v9.539a107.871,107.871,0,0,0-19.581,1.72c-6.238,1.268-9.261,2.954-9.261,5.143v4.274c0,2.189,3.023,3.875,9.261,5.143a.507.507,0,0,1,.156.035V37.85h-.33a1.027,1.027,0,0,0-1.025,1.025V42H14.663a1.027,1.027,0,0,0-1.025,1.025v13.4L8.825,61.341a6.339,6.339,0,1,0,8.965,8.965l6.516-6.62a6.755,6.755,0,0,0,2-4.813V43.028a1.009,1.009,0,0,0-.278-.73,1.024,1.024,0,0,0-.73-.3h-1.3a1.027,1.027,0,0,0-1.025,1.025,1.016,1.016,0,0,0,1.025,1.025h.278V58.874a4.747,4.747,0,0,1-1.407,3.371l-6.516,6.62a4.3,4.3,0,0,1-6.081-6.081l5.108-5.23a1.014,1.014,0,0,0,.3-.712V44.053h1.459v.99a1.027,1.027,0,0,0,1.025,1.025h2.693a1.027,1.027,0,0,0,1.025-1.025V38.875a1.027,1.027,0,0,0-1.025-1.025h-.33V33.211a113.51,113.51,0,0,0,17.392,1.32V37.85h-.33a1.027,1.027,0,0,0-1.025,1.025V42H34.071a1.027,1.027,0,0,0-1.025,1.025v13.4l-4.813,4.917A6.339,6.339,0,1,0,37.2,70.306l6.516-6.62a6.755,6.755,0,0,0,2-4.813V43.028a1.009,1.009,0,0,0-.278-.73,1.024,1.024,0,0,0-.73-.3H43.4a1.027,1.027,0,0,0-1.025,1.025A1.016,1.016,0,0,0,43.4,44.053h.278V58.874a4.747,4.747,0,0,1-1.407,3.371l-6.516,6.62a4.256,4.256,0,0,1-3.041,1.251,4.292,4.292,0,0,1-3.041-7.332l5.108-5.23a1.014,1.014,0,0,0,.3-.712V44.053h1.459v.99a1.027,1.027,0,0,0,1.025,1.025h2.693a1.027,1.027,0,0,0,1.025-1.025V38.875a1.027,1.027,0,0,0-1.025-1.025h-.33V34.532a119.081,119.081,0,0,0,16.02-1.112V37.85h-.33a1.027,1.027,0,0,0-1.025,1.025v6.168a1.027,1.027,0,0,0,1.025,1.025h2.693a1.027,1.027,0,0,0,1.025-1.025v-.99h1.459V56.841a1.014,1.014,0,0,0,.3.712l5.126,5.23a4.294,4.294,0,0,1-6.064,6.081l-6.533-6.637a4.731,4.731,0,0,1-1.39-3.371V44.036h.278a1.027,1.027,0,0,0,1.025-1.025,1.016,1.016,0,0,0-1.025-1.025H51.2a1.009,1.009,0,0,0-1.025,1.025V58.856a6.787,6.787,0,0,0,2,4.8l6.533,6.637a6.34,6.34,0,0,0,8.983-8.948ZM19.876,44h-.66V39.883h.66ZM39.3,44h-.66V39.883a.819.819,0,0,0,.66,0V44Zm-.33-11.519a106.287,106.287,0,0,1-20.189-1.7c-6.238-1.268-7.628-2.728-7.628-3.145V26.122a23.871,23.871,0,0,0,7.228,2.4,109.277,109.277,0,0,0,20.606,1.737A107.977,107.977,0,0,0,59.595,28.52a23.4,23.4,0,0,0,7.228-2.4v1.512c0,.417-1.407,1.876-7.628,3.145a106.551,106.551,0,0,1-20.189,1.7ZM57.353,44h-.66V39.883a.819.819,0,0,0,.66,0V44Z" transform="translate(-6.975 -5.95)" fill="#323536"/>
</svg>
