<svg xmlns="http://www.w3.org/2000/svg" width="46.481" height="58.773" viewBox="0 0 46.481 58.773">
  <g id="staiy__dryer" transform="translate(-9.95 -5.97)">
    <path id="Pfad_606" data-name="Pfad 606" d="M13.461,10.742h2.347a1.081,1.081,0,0,0,0-2.162H13.461a1.081,1.081,0,1,0,0,2.162Z" transform="translate(1.322 1.42)" fill="#323536"/>
    <path id="Pfad_607" data-name="Pfad 607" d="M17.161,10.742h2.347a1.081,1.081,0,1,0,0-2.162H17.161a1.081,1.081,0,1,0,0,2.162Z" transform="translate(3.336 1.42)" fill="#323536"/>
    <path id="Pfad_608" data-name="Pfad 608" d="M31.986,10.721A1.066,1.066,0,1,0,30.92,9.656a1.068,1.068,0,0,0,1.066,1.066Z" transform="translate(11.412 1.426)" fill="#323536"/>
    <path id="Pfad_609" data-name="Pfad 609" d="M36.4,10.721A1.066,1.066,0,1,0,35.33,9.656,1.068,1.068,0,0,0,36.4,10.721Z" transform="translate(13.812 1.426)" fill="#323536"/>
    <path id="Pfad_610" data-name="Pfad 610" d="M22.436,25.99h0a3.734,3.734,0,0,0,1.529-2.949,1.081,1.081,0,0,0-2.162,0c0,.6-.263.849-.834,1.359a3.61,3.61,0,0,0,0,5.9c.556.51.834.772.834,1.359s-.247.834-.834,1.359a3.734,3.734,0,0,0-1.529,2.949,1.081,1.081,0,0,0,2.162,0c0-.6.263-.849.834-1.359a3.734,3.734,0,0,0,1.529-2.949,3.814,3.814,0,0,0-1.529-2.949c-.556-.51-.834-.788-.834-1.359S21.864,26.5,22.436,25.99Z" transform="translate(5.165 8.702)" fill="#323536"/>
    <path id="Pfad_611" data-name="Pfad 611" d="M34.2,10.721A1.066,1.066,0,1,0,33.13,9.656,1.068,1.068,0,0,0,34.2,10.721Z" transform="translate(12.615 1.426)" fill="#323536"/>
    <path id="Pfad_612" data-name="Pfad 612" d="M50.275,10.96H13.461a1.081,1.081,0,1,0,0,2.162H50.275a1.081,1.081,0,0,0,0-2.162Z" transform="translate(1.322 2.716)" fill="#323536"/>
    <path id="Pfad_613" data-name="Pfad 613" d="M52.416,5.97H13.965A4.027,4.027,0,0,0,9.95,9.985V60.728a4.027,4.027,0,0,0,4.015,4.015H52.416a4.027,4.027,0,0,0,4.015-4.015V9.985A4.027,4.027,0,0,0,52.416,5.97Zm1.869,4.015V60.728A1.875,1.875,0,0,1,52.416,62.6H13.965A1.875,1.875,0,0,1,12.1,60.728V9.985a1.865,1.865,0,0,1,1.869-1.869H52.416A1.875,1.875,0,0,1,54.285,9.985Z" fill="#323536"/>
    <path id="Pfad_614" data-name="Pfad 614" d="M30.48,16.77a15.55,15.55,0,1,0,15.55,15.55A15.573,15.573,0,0,0,30.48,16.77Zm13.4,15.55a13.4,13.4,0,1,1-13.4-13.4A13.411,13.411,0,0,1,43.884,32.32Z" transform="translate(2.71 5.878)" fill="#323536"/>
    <path id="Pfad_615" data-name="Pfad 615" d="M30.616,25.99h0a3.734,3.734,0,0,0,1.529-2.949,1.081,1.081,0,0,0-2.162,0c0,.6-.263.849-.834,1.359a3.61,3.61,0,0,0,0,5.9c.556.51.834.772.834,1.359s-.247.834-.834,1.359a3.734,3.734,0,0,0-1.529,2.949,1.081,1.081,0,0,0,2.162,0c0-.6.263-.849.834-1.359a3.734,3.734,0,0,0,1.529-2.949,3.814,3.814,0,0,0-1.529-2.949c-.556-.51-.834-.788-.834-1.359S30.044,26.5,30.616,25.99Z" transform="translate(9.616 8.702)" fill="#323536"/>
    <path id="Pfad_616" data-name="Pfad 616" d="M26.526,25.99a3.734,3.734,0,0,0,1.529-2.949,1.081,1.081,0,0,0-2.162,0c0,.6-.263.849-.834,1.359a3.61,3.61,0,0,0,0,5.9c.556.51.834.772.834,1.359s-.247.834-.834,1.359a3.734,3.734,0,0,0-1.529,2.949,1.081,1.081,0,0,0,2.162,0c0-.6.263-.849.834-1.359a3.734,3.734,0,0,0,1.529-2.949,3.814,3.814,0,0,0-1.529-2.949c-.556-.51-.834-.788-.834-1.359S25.954,26.5,26.526,25.99Z" transform="translate(7.391 8.702)" fill="#323536"/>
  </g>
</svg>
