<svg xmlns="http://www.w3.org/2000/svg" width="29" height="30" viewBox="0 0 29 30">
  <g id="linkedin" transform="translate(-0.469)">
    <g id="Pfad_565" data-name="Pfad 565" transform="translate(29.469) rotate(90)" fill="none">
      <path d="M15,0A14.756,14.756,0,0,1,30,14.5,14.756,14.756,0,0,1,15,29,14.756,14.756,0,0,1,0,14.5,14.756,14.756,0,0,1,15,0Z" stroke="none"/>
      <path d="M 15 1 C 11.25408935546875 1 7.734090805053711 2.40846061706543 5.088420867919922 4.965940475463867 C 2.451959609985352 7.514520645141602 1 10.90044021606445 1 14.5 C 1 18.09955978393555 2.451959609985352 21.4854793548584 5.088420867919922 24.03405952453613 C 7.734090805053711 26.59153938293457 11.25408935546875 28 15 28 C 18.74591064453125 28 22.26591110229492 26.59153938293457 24.91157913208008 24.03405952453613 C 27.54804039001465 21.4854793548584 29 18.09955978393555 29 14.5 C 29 10.90044021606445 27.54804039001465 7.514520645141602 24.91157913208008 4.965940475463867 C 22.26591110229492 2.40846061706543 18.74591064453125 1 15 1 M 15 0 C 23.28426933288574 0 30 6.491870880126953 30 14.5 C 30 22.50812911987305 23.28426933288574 29 15 29 C 6.715730667114258 29 0 22.50812911987305 0 14.5 C 0 6.491870880126953 6.715730667114258 0 15 0 Z" stroke="none" fill="#323536"/>
    </g>
    <g id="Gruppe_19" data-name="Gruppe 19" transform="translate(7.875 7.891)">
      <path id="Pfad_178" data-name="Pfad 178" d="M.228,91.241h2.86v9.185H.228Zm1.43-4.565A1.655,1.655,0,1,1,0,88.33a1.655,1.655,0,0,1,1.658-1.654" transform="translate(0 -86.676)" fill="#323536"/>
      <path id="Pfad_179" data-name="Pfad 179" d="M4.831,91.2H7.569v1.256h.037a3,3,0,0,1,2.7-1.483c2.891,0,3.424,1.9,3.424,4.375v5.037H10.881V95.918c0-1.066-.021-2.435-1.483-2.435-1.486,0-1.713,1.16-1.713,2.358v4.544H4.831Z" transform="translate(0.047 -86.634)" fill="#323536"/>
    </g>
  </g>
</svg>
