<svg xmlns="http://www.w3.org/2000/svg" width="30" height="30" viewBox="0 0 30 30">
  <g id="twitter" transform="translate(0.406)">
    <g id="Ellipse_11" data-name="Ellipse 11" transform="translate(29.594) rotate(90)" fill="none" stroke="#323536" stroke-width="1">
      <circle cx="15" cy="15" r="15" stroke="none"/>
      <circle cx="15" cy="15" r="14.5" fill="none"/>
    </g>
    <path id="Pfad_174" data-name="Pfad 174" d="M98.053,3.788a6.031,6.031,0,0,1-1.477.421c.238-.04.586-.47.726-.644a2.719,2.719,0,0,0,.491-.894c.012-.026.022-.058,0-.077a.085.085,0,0,0-.079.006,7.512,7.512,0,0,1-1.751.67.117.117,0,0,1-.121-.032,1.306,1.306,0,0,0-.153-.157,3.1,3.1,0,0,0-.848-.52,2.951,2.951,0,0,0-1.3-.209A3.1,3.1,0,0,0,92.3,2.7a3.169,3.169,0,0,0-1,.813,3.064,3.064,0,0,0-.6,1.192,3.229,3.229,0,0,0-.031,1.257c.009.07,0,.08-.06.07A9.347,9.347,0,0,1,84.6,2.971c-.071-.08-.109-.08-.167.006a3.051,3.051,0,0,0,.52,3.6c.118.112.24.223.37.326a3.076,3.076,0,0,1-1.161-.326c-.07-.044-.105-.018-.112.061a1.858,1.858,0,0,0,.019.344,3.086,3.086,0,0,0,1.9,2.46,1.807,1.807,0,0,0,.386.118,3.465,3.465,0,0,1-1.139.035c-.082-.016-.114.026-.082.105a3.2,3.2,0,0,0,2.392,2c.109.019.217.019.326.044-.006.01-.013.01-.019.019a3.78,3.78,0,0,1-1.634.866,5.852,5.852,0,0,1-2.482.318c-.134-.02-.161-.018-.2,0s0,.054.038.089c.169.112.342.211.517.307a8.2,8.2,0,0,0,1.66.663,8.834,8.834,0,0,0,8.578-2.006A9,9,0,0,0,96.69,5.443c0-.094.112-.147.178-.2a5.778,5.778,0,0,0,1.168-1.213.367.367,0,0,0,.077-.233V3.788c0-.038,0-.027-.06,0" transform="translate(-76.044 6.408)" fill="#323536"/>
  </g>
</svg>
