<svg xmlns="http://www.w3.org/2000/svg" width="29" height="30" viewBox="0 0 29 30">
  <g id="whatsapp" transform="translate(-0.063)">
    <g id="Ellipse_12" data-name="Ellipse 12" transform="translate(29.063) rotate(90)" fill="none" stroke="#323536" stroke-width="1">
      <ellipse cx="15" cy="14.5" rx="15" ry="14.5" stroke="none"/>
      <ellipse cx="15" cy="14.5" rx="14.5" ry="14" fill="none"/>
    </g>
    <g id="Gruppe_18" data-name="Gruppe 18" transform="translate(7.875 7.858)">
      <path id="Pfad_175" data-name="Pfad 175" d="M83.411,56.5l.99-3.7a6.842,6.842,0,1,1,2.724,2.7Zm3.9-2.38.234.14a5.552,5.552,0,1,0-1.9-1.883l.144.236-.553,2.063Z" transform="translate(-83.411 -42.684)" fill="#323536"/>
      <path id="Pfad_176" data-name="Pfad 176" d="M93.752,51.311a1.146,1.146,0,0,0-.977-.22c-.254.1-.416.5-.58.7a.243.243,0,0,1-.314.068,4.428,4.428,0,0,1-2.209-1.892.27.27,0,0,1,.034-.37,1.5,1.5,0,0,0,.4-.652,1.425,1.425,0,0,0-.18-.771,1.828,1.828,0,0,0-.569-.858.779.779,0,0,0-.847.126,1.72,1.72,0,0,0-.6,1.363,1.936,1.936,0,0,0,.054.432,3.578,3.578,0,0,0,.415.955,7.352,7.352,0,0,0,.433.658A6.659,6.659,0,0,0,90.693,52.6a5.647,5.647,0,0,0,1.171.557,2.6,2.6,0,0,0,1.363.215,1.647,1.647,0,0,0,1.236-.92.791.791,0,0,0,.058-.469c-.071-.323-.508-.516-.769-.672" transform="translate(-84.255 -43.539)" fill="#323536" fill-rule="evenodd"/>
    </g>
  </g>
</svg>
